<svg xmlns="http://www.w3.org/2000/svg" xmlns:xlink="http://www.w3.org/1999/xlink" preserveAspectRatio="xMidYMid" width="20" height="20" viewBox="0 0 20 20">
  <defs>
    <style>
      .cls-1 {
        fill: #fefdfd;
        fill-rule: evenodd;
      }
    </style>
  </defs>
  <g id="artboard-1">
    <path d="M9.500,15.999 C6.462,15.999 4.000,13.595 4.000,10.629 C4.000,8.394 5.398,6.479 7.386,5.670 L7.386,10.017 C7.386,11.152 8.337,12.081 9.500,12.081 C10.662,12.081 11.614,11.152 11.614,10.017 L11.614,5.670 C13.602,6.479 15.000,8.394 15.000,10.629 C15.000,13.595 12.537,15.999 9.500,15.999 ZM9.494,10.203 C9.277,10.203 9.091,10.127 8.936,9.977 C8.781,9.825 8.704,9.644 8.704,9.432 L8.704,4.782 C8.704,4.570 8.781,4.386 8.936,4.231 C9.091,4.076 9.277,3.999 9.494,3.999 C9.719,3.999 9.909,4.076 10.064,4.231 C10.219,4.386 10.295,4.570 10.295,4.782 L10.295,9.432 C10.295,9.644 10.219,9.825 10.064,9.977 C9.909,10.127 9.719,10.203 9.494,10.203 Z" class="cls-1"/>
  </g>
</svg>
