<svg xmlns="http://www.w3.org/2000/svg" xmlns:xlink="http://www.w3.org/1999/xlink" preserveAspectRatio="xMidYMid" width="30" height="30" viewBox="0 0 30 30">
  <defs>
    <style>
      .cls-1 {
        fill: #666666;
        fill-rule: evenodd;
      }
    </style>
  </defs>
  <g id="artboard-1">
    <path d="M15.826,6.035 C15.634,5.981 15.319,5.981 15.127,6.035 L12.176,6.870 C11.983,6.924 11.983,7.012 12.176,7.065 L22.049,9.800 C22.242,9.854 22.400,10.064 22.400,10.267 L22.400,15.210 C22.400,15.413 22.247,15.640 22.062,15.714 L20.519,16.327 C20.333,16.402 20.180,16.295 20.180,16.092 L20.180,11.181 C20.180,10.977 20.023,10.767 19.830,10.714 L9.422,7.857 C9.229,7.804 8.914,7.805 8.722,7.859 L5.347,8.814 C5.155,8.868 4.997,9.079 4.997,9.283 L4.997,22.033 C4.997,22.236 5.153,22.454 5.343,22.516 L15.842,25.956 C16.032,26.018 16.341,26.012 16.529,25.942 L25.662,22.530 C25.850,22.460 26.003,22.236 26.003,22.033 L26.004,9.289 C26.004,9.086 25.847,8.874 25.654,8.820 L15.826,6.035 L15.826,6.035 Z" class="cls-1"/>
  </g>
</svg>
