<svg xmlns="http://www.w3.org/2000/svg" xmlns:xlink="http://www.w3.org/1999/xlink" preserveAspectRatio="xMidYMid" width="30" height="30" viewBox="0 0 30 30">
  <defs>
    <style>
      .cls-1 {
        fill: #f37022;
        fill-rule: evenodd;
      }
    </style>
  </defs>
  <g id="artboard-1">
    <path d="M22.787,11.788 L22.787,7.212 L18.212,7.212 L15.000,4.000 L11.787,7.212 L7.212,7.212 L7.212,11.788 L4.000,15.000 L7.212,18.212 L7.212,22.787 L11.787,22.787 L15.000,26.000 L18.212,22.787 L22.787,22.787 L22.787,18.212 L25.999,15.000 L22.787,11.788 L22.787,11.788 L22.787,11.788 L22.787,11.788 ZM15.055,20.914 C11.832,20.914 9.196,18.278 9.196,15.055 C9.196,11.833 11.832,9.196 15.055,9.196 C18.277,9.196 20.914,11.833 20.914,15.055 C20.914,18.278 18.277,20.914 15.055,20.914 L15.055,20.914 L15.055,20.914 L15.055,20.914 ZM14.944,11.075 C12.816,11.075 11.075,12.816 11.075,14.945 C11.075,17.073 12.816,18.814 14.944,18.814 C17.072,18.814 18.813,17.073 18.813,14.945 C18.813,12.816 17.072,11.075 14.944,11.075 L14.944,11.075 L14.944,11.075 L14.944,11.075 Z" class="cls-1"/>
  </g>
</svg>
