<svg xmlns="http://www.w3.org/2000/svg" xmlns:xlink="http://www.w3.org/1999/xlink" preserveAspectRatio="xMidYMid" width="30" height="30" viewBox="0 0 30 30">
  <defs>
    <style>
      .cls-1 {
        fill: #666666;
        fill-rule: evenodd;
      }
    </style>
  </defs>
  <g id="artboard-1">
    <path d="M24.981,22.535 C24.975,22.875 24.873,23.192 24.729,23.495 C24.556,23.861 24.301,24.165 23.984,24.418 C23.623,24.705 23.216,24.887 22.759,24.955 C22.658,24.970 22.558,24.985 22.457,25.000 L7.547,25.000 C7.516,24.993 7.486,24.980 7.456,24.979 C7.144,24.966 6.848,24.887 6.566,24.759 C6.152,24.571 5.804,24.299 5.532,23.930 C5.308,23.626 5.143,23.295 5.069,22.922 C5.047,22.812 5.024,22.701 5.001,22.591 L5.001,7.385 C5.019,7.289 5.033,7.191 5.055,7.096 C5.180,6.557 5.434,6.092 5.843,5.712 C6.168,5.410 6.540,5.197 6.971,5.089 C7.102,5.057 7.234,5.029 7.365,4.999 L22.616,4.999 C22.628,5.006 22.639,5.019 22.651,5.020 C22.953,5.034 23.232,5.131 23.500,5.260 C23.982,5.493 24.363,5.843 24.631,6.305 C24.797,6.591 24.921,6.897 24.958,7.231 C24.968,7.321 24.988,7.410 25.003,7.499 L25.003,22.477 C24.995,22.497 24.981,22.515 24.981,22.535 ZM22.016,7.844 C21.799,7.652 21.544,7.524 21.252,7.524 C17.086,7.520 12.919,7.522 8.752,7.522 C8.718,7.522 8.684,7.521 8.651,7.527 C8.314,7.590 8.031,7.744 7.815,8.014 C7.639,8.235 7.526,8.485 7.526,8.769 C7.523,12.042 7.524,15.314 7.524,18.587 L7.524,18.727 L7.661,18.727 C8.399,18.727 9.138,18.726 9.877,18.728 C9.973,18.728 10.072,18.734 10.167,18.751 C10.527,18.815 10.813,18.999 11.026,19.298 C11.205,19.552 11.270,19.840 11.272,20.141 C11.279,20.872 11.274,21.603 11.274,22.334 L11.274,22.471 L18.730,22.471 L18.730,22.342 C18.730,21.580 18.729,20.819 18.731,20.058 C18.731,19.968 18.737,19.877 18.757,19.790 C18.899,19.156 19.434,18.727 20.082,18.727 C20.836,18.728 21.590,18.727 22.343,18.727 L22.480,18.727 L22.480,18.575 C22.480,15.360 22.479,12.144 22.481,8.928 C22.481,8.497 22.342,8.131 22.016,7.844 ZM15.116,17.468 C15.062,17.522 15.009,17.548 14.930,17.547 C14.578,17.543 14.225,17.547 13.873,17.543 C13.826,17.542 13.767,17.523 13.735,17.492 C12.507,16.267 11.281,15.040 10.054,13.814 C10.044,13.803 10.035,13.791 10.034,13.790 L11.944,11.881 L14.382,14.386 C14.465,14.301 14.548,14.215 14.632,14.131 C15.401,13.369 16.169,12.607 16.939,11.847 C17.305,11.486 17.675,11.129 18.039,10.766 C18.103,10.704 18.141,10.689 18.211,10.761 C18.429,10.981 18.654,11.194 18.877,11.408 C19.218,11.734 19.558,12.060 19.900,12.384 C19.948,12.430 20.001,12.469 20.059,12.517 C20.023,12.555 19.996,12.585 19.967,12.614 C18.350,14.232 16.732,15.849 15.116,17.468 Z" class="cls-1"/>
  </g>
</svg>
