<svg xmlns="http://www.w3.org/2000/svg" xmlns:xlink="http://www.w3.org/1999/xlink" preserveAspectRatio="xMidYMid" width="30" height="30" viewBox="0 0 30 30">
  <defs>
    <style>
      .cls-1 {
        fill: #666666;
        fill-rule: evenodd;
      }
    </style>
  </defs>
  <g id="artboard-1">
    <path d="M22.659,25.002 L7.341,25.002 C6.050,25.002 5.000,23.975 5.000,22.708 L5.000,9.802 C5.000,8.539 6.050,7.513 7.341,7.513 L7.863,7.513 L7.863,9.559 C7.863,10.213 8.409,10.750 9.080,10.750 L10.552,10.750 C11.223,10.750 11.768,10.213 11.768,9.559 L11.768,7.513 L18.236,7.513 L18.236,9.559 C18.236,10.213 18.784,10.750 19.454,10.750 L20.927,10.750 C21.597,10.750 22.142,10.213 22.142,9.559 L22.142,7.513 L22.659,7.513 C23.953,7.513 25.005,8.539 25.005,9.802 L25.005,22.708 C25.005,23.975 23.953,25.002 22.659,25.002 ZM6.484,14.053 L6.484,22.708 C6.484,23.174 6.869,23.551 7.341,23.551 L22.659,23.551 C23.135,23.551 23.522,23.174 23.522,22.708 L23.522,14.053 L6.484,14.053 ZM20.927,9.952 L19.454,9.952 C19.231,9.952 19.049,9.775 19.049,9.559 L19.049,6.392 C19.049,6.175 19.231,5.998 19.454,5.998 L20.927,5.998 C21.149,5.998 21.329,6.175 21.329,6.392 L21.329,9.559 C21.329,9.775 21.149,9.952 20.927,9.952 ZM10.552,9.952 L9.080,9.952 C8.856,9.952 8.678,9.775 8.678,9.559 L8.678,6.392 C8.678,6.175 8.856,5.998 9.080,5.998 L10.552,5.998 C10.774,5.998 10.956,6.175 10.956,6.392 L10.956,9.559 C10.956,9.775 10.774,9.952 10.552,9.952 Z" class="cls-1"/>
  </g>
</svg>
