<svg xmlns="http://www.w3.org/2000/svg" xmlns:xlink="http://www.w3.org/1999/xlink" preserveAspectRatio="xMidYMid" width="20" height="20" viewBox="0 0 20 20">
  <defs>
    <style>
      .cls-1 {
        fill: #fefdfd;
        fill-rule: evenodd;
      }
    </style>
  </defs>
  <g id="artboard-1">
    <path d="M13.743,8.196 L13.533,8.196 L13.533,8.196 L11.658,8.196 L11.658,8.196 L8.121,8.196 L8.121,6.032 C8.121,5.312 8.960,4.516 9.995,4.516 C11.030,4.516 11.869,5.312 11.869,6.032 L11.869,6.562 L11.869,6.573 L11.869,6.583 L11.869,6.680 L11.879,6.680 C11.928,7.047 12.232,7.328 12.600,7.328 C12.968,7.328 13.273,7.047 13.322,6.680 L13.331,6.680 L13.331,6.032 C13.331,4.357 11.840,3.000 10.000,3.000 C8.160,3.000 6.668,4.357 6.668,6.032 L6.668,8.196 L6.251,8.196 C5.559,8.196 5.000,8.778 5.000,9.497 L5.000,14.698 C5.000,15.418 5.559,16.000 6.251,16.000 L13.748,16.000 C14.440,16.000 15.000,15.418 15.000,14.698 L15.000,9.497 C14.995,8.778 14.430,8.196 13.743,8.196 L13.743,8.196 L13.743,8.196 ZM10.618,12.994 L10.618,13.586 C10.618,13.958 10.338,14.259 9.990,14.259 C9.646,14.259 9.367,13.958 9.367,13.586 L9.367,12.994 C8.876,12.754 8.533,12.238 8.533,11.641 C8.533,10.814 9.185,10.145 9.990,10.145 C10.795,10.145 11.447,10.814 11.447,11.641 C11.452,12.238 11.108,12.754 10.618,12.994 L10.618,12.994 L10.618,12.994 Z" class="cls-1"/>
  </g>
</svg>
