<svg xmlns="http://www.w3.org/2000/svg" xmlns:xlink="http://www.w3.org/1999/xlink" preserveAspectRatio="xMidYMid" width="30" height="30" viewBox="0 0 30 30">
  <defs>
    <style>
      .cls-1 {
        fill: #f37022;
        fill-rule: evenodd;
      }
    </style>
  </defs>
  <g id="artboard-1">
    <path d="M18.294,8.715 L12.706,8.715 C9.619,8.715 7.397,11.215 8.235,13.286 C9.073,15.357 10.470,14.643 10.470,17.858 C10.470,21.072 9.772,20.144 9.353,22.429 C8.934,24.714 10.680,27.000 13.823,27.000 C16.967,27.000 20.250,25.215 21.647,22.429 C23.044,19.644 23.882,14.428 23.882,14.428 C23.882,11.273 21.380,8.715 18.294,8.715 L18.294,8.715 ZM11.588,5.857 C11.588,4.280 10.337,3.000 8.794,3.000 C7.250,3.000 6.000,4.280 6.000,5.857 C6.000,7.435 7.250,8.715 8.794,8.715 C10.337,8.715 11.588,7.435 11.588,5.857 L11.588,5.857 ZM14.382,6.430 C15.308,6.430 16.058,5.662 16.058,4.714 C16.058,3.768 15.308,3.000 14.382,3.000 C13.457,3.000 12.706,3.768 12.706,4.714 C12.706,5.662 13.457,6.430 14.382,6.430 L14.382,6.430 ZM18.853,7.572 C19.778,7.572 20.529,6.805 20.529,5.857 C20.529,4.911 19.778,4.143 18.853,4.143 C17.927,4.143 17.176,4.911 17.176,5.857 C17.176,6.805 17.927,7.572 18.853,7.572 L18.853,7.572 ZM23.323,6.430 C22.398,6.430 21.647,7.196 21.647,8.144 C21.647,9.090 22.398,9.858 23.323,9.858 C24.249,9.858 25.000,9.090 25.000,8.144 C25.000,7.196 24.249,6.430 23.323,6.430 L23.323,6.430 Z" class="cls-1"/>
  </g>
</svg>
