<svg xmlns="http://www.w3.org/2000/svg" xmlns:xlink="http://www.w3.org/1999/xlink" preserveAspectRatio="xMidYMid" width="30" height="30" viewBox="0 0 30 30">
  <defs>
    <style>
      .cls-1 {
        fill: #666;
        fill-rule: evenodd;
      }
    </style>
  </defs>
  <g id="artboard-1">
    <path d="M16.109,14.187 C17.203,13.162 17.832,11.743 17.854,10.251 C17.877,8.758 17.290,7.321 16.228,6.264 C16.692,6.090 17.185,6.000 17.682,6.001 C19.990,6.001 21.863,7.903 21.863,10.250 C21.863,12.597 19.992,14.499 17.682,14.499 C17.142,14.500 16.607,14.394 16.109,14.187 L16.109,14.187 ZM18.095,15.915 L19.599,15.915 C22.582,15.915 24.998,18.372 24.998,21.404 L24.998,21.758 C24.998,22.719 23.434,22.937 21.272,22.985 C21.376,22.825 21.430,22.638 21.427,22.448 L21.427,21.988 C21.440,19.531 20.182,17.239 18.095,15.915 L18.095,15.915 ZM11.968,6.001 C14.276,6.001 16.149,7.903 16.149,10.250 C16.149,12.597 14.278,14.499 11.968,14.499 C9.659,14.499 7.787,12.597 7.787,10.250 C7.787,7.903 9.659,6.001 11.968,6.001 L11.968,6.001 ZM10.399,15.915 L13.884,15.915 C16.866,15.915 19.283,18.372 19.283,21.404 L19.283,21.758 C19.283,22.952 16.865,22.999 13.884,22.999 L10.399,22.999 C7.417,22.999 5.000,22.998 5.000,21.758 L5.000,21.404 C5.000,18.373 7.417,15.915 10.399,15.915 L10.399,15.915 Z" class="cls-1"/>
  </g>
</svg>
