<svg xmlns="http://www.w3.org/2000/svg" xmlns:xlink="http://www.w3.org/1999/xlink" preserveAspectRatio="xMidYMid" width="30" height="30" viewBox="0 0 30 30">
  <defs>
    <style>
      .cls-1 {
        fill: #666;
        fill-rule: evenodd;
      }
    </style>
  </defs>
  <g id="artboard-1">
    <path d="M24.901,6.000 L5.259,6.000 C4.550,6.000 4.000,6.365 4.000,6.960 L4.000,20.766 C4.000,21.246 4.550,21.726 5.112,21.726 L12.983,21.726 L12.788,22.914 L11.260,22.914 C10.710,22.914 10.282,23.519 10.282,23.999 L19.620,23.999 C19.755,23.634 19.339,22.914 18.777,22.914 L17.249,22.914 L17.017,21.726 L24.888,21.726 C25.438,21.726 26.001,21.246 26.001,20.766 L26.001,6.970 C26.013,6.355 25.463,6.000 24.901,6.000 L24.901,6.000 ZM24.021,18.952 L6.139,18.952 L6.139,8.263 L24.021,8.263 L24.021,18.952 L24.021,18.952 ZM10.894,12.643 C11.284,12.643 11.651,12.518 11.908,12.278 C12.165,12.038 12.336,11.715 12.336,11.391 C12.336,11.058 12.189,10.734 11.908,10.495 C11.627,10.255 11.260,10.130 10.894,10.130 C10.502,10.130 10.136,10.255 9.879,10.495 C9.622,10.734 9.451,11.058 9.451,11.391 C9.451,11.725 9.598,12.048 9.879,12.278 C10.136,12.507 10.502,12.643 10.894,12.643 L10.894,12.643 ZM21.271,14.259 L15.978,14.259 L15.978,17.408 L21.271,17.408 L21.271,14.259 L21.271,14.259 ZM21.002,9.817 L15.709,9.817 L15.709,12.956 L21.002,12.956 L21.002,9.817 L21.002,9.817 ZM13.925,14.259 L8.632,14.259 L8.632,17.408 L13.925,17.408 L13.925,14.259 L13.925,14.259 Z" class="cls-1"/>
  </g>
</svg>
