<svg xmlns="http://www.w3.org/2000/svg" xmlns:xlink="http://www.w3.org/1999/xlink" preserveAspectRatio="xMidYMid" width="30" height="30" viewBox="0 0 30 30">
  <defs>
    <style>
      .cls-1 {
        fill: #666;
        fill-rule: evenodd;
      }
    </style>
  </defs>
  <g id="artboard-1">
    <path d="M23.998,24.000 L7.002,24.000 C5.901,24.000 5.000,23.345 5.000,22.544 L5.000,10.559 C5.000,9.758 5.901,9.103 7.002,9.103 L10.049,9.103 L10.049,10.525 C10.049,11.011 10.596,11.409 11.264,11.409 L19.708,11.409 C20.376,11.409 20.923,11.011 20.923,10.525 L20.923,9.103 L23.998,9.103 C25.099,9.103 26.000,9.758 26.000,10.559 L26.000,22.544 C26.000,23.345 25.099,24.000 23.998,24.000 ZM24.344,12.912 L20.161,12.912 L21.552,13.924 L15.924,18.019 L14.387,16.901 L13.120,15.978 L11.852,16.901 L6.887,20.513 L8.154,21.435 L13.120,17.823 L14.657,18.941 L15.924,19.863 L22.820,14.846 L24.344,15.955 L24.344,12.912 ZM18.714,10.363 L12.258,10.363 C11.772,10.363 11.374,10.074 11.374,9.720 L11.374,8.721 C11.374,8.367 11.772,8.078 12.258,8.078 L12.394,8.078 C12.520,6.919 13.863,6.000 15.486,6.000 C17.109,6.000 18.452,6.919 18.578,8.078 L18.714,8.078 C19.200,8.078 19.598,8.367 19.598,8.721 L19.598,9.720 C19.598,10.074 19.200,10.363 18.714,10.363 ZM16.740,7.625 L14.252,7.625 L14.252,9.103 L16.740,9.103 L16.740,7.625 Z" class="cls-1"/>
  </g>
</svg>
