<svg xmlns="http://www.w3.org/2000/svg" xmlns:xlink="http://www.w3.org/1999/xlink" preserveAspectRatio="xMidYMid" width="30" height="30" viewBox="0 0 30 30">
  <defs>
    <style>
      .cls-1 {
        fill: #db251c;
        fill-rule: evenodd;
      }
    </style>
  </defs>
  <g id="artboard-1">
    <path d="M23.618,15.288 C22.415,13.216 21.172,12.092 20.726,11.193 C20.253,10.239 20.720,9.426 20.720,9.426 C19.732,9.278 18.998,9.985 18.444,10.702 C18.101,11.146 17.653,13.835 16.952,14.495 C16.833,14.607 16.596,14.580 16.529,14.445 C14.134,9.595 15.418,7.000 15.418,7.000 C11.650,8.066 10.713,10.824 10.533,11.251 C10.188,12.076 10.334,15.212 10.334,15.212 C10.319,15.427 9.930,15.482 9.812,15.287 C9.812,15.287 8.819,13.451 8.703,12.444 C8.609,11.620 8.600,11.792 8.600,11.792 C6.894,12.975 4.999,15.655 4.999,17.454 C4.999,21.069 9.252,24.000 14.499,24.000 C19.745,24.000 23.998,21.069 23.998,17.454 C23.998,16.683 23.998,15.942 23.618,15.288 L23.618,15.288 L23.618,15.288 Z" class="cls-1"/>
  </g>
</svg>
