<svg xmlns="http://www.w3.org/2000/svg" xmlns:xlink="http://www.w3.org/1999/xlink" preserveAspectRatio="xMidYMid" width="30" height="30" viewBox="0 0 30 30">
  <defs>
    <style>
      .cls-1 {
        fill: #fd8a00;
        fill-rule: evenodd;
      }
    </style>
  </defs>
  <g id="artboard-1">
    <path d="M21.107,5.999 L17.049,5.999 C16.006,5.999 15.156,6.849 15.156,7.892 L15.156,11.949 C15.156,12.992 16.006,13.842 17.049,13.842 L21.107,13.842 C22.150,13.842 23.000,12.992 23.000,11.949 L23.000,7.894 C23.000,6.849 22.150,5.999 21.107,5.999 L21.107,5.999 ZM21.107,15.119 L17.049,15.119 C16.006,15.119 15.156,15.968 15.156,17.011 L15.156,21.069 C15.156,22.111 16.006,22.961 17.049,22.961 L21.107,22.961 C22.150,22.961 23.000,22.111 23.000,21.069 L23.000,17.050 C23.000,15.968 22.150,15.119 21.107,15.119 L21.107,15.119 ZM11.947,5.999 L7.891,5.999 C6.849,5.999 5.999,6.849 5.999,7.892 L5.999,11.949 C5.999,12.992 6.849,13.842 7.891,13.842 L11.950,13.842 C12.992,13.842 13.842,12.992 13.842,11.949 L13.842,7.894 C13.881,6.849 13.029,5.999 11.947,5.999 L11.947,5.999 ZM11.947,15.119 L7.891,15.119 C6.849,15.119 5.999,15.968 5.999,17.011 L5.999,21.069 C5.999,22.150 6.849,23.000 7.891,23.000 L11.950,23.000 C12.992,23.000 13.842,22.150 13.842,21.108 L13.842,17.050 C13.881,15.968 13.029,15.119 11.947,15.119 L11.947,15.119 Z" class="cls-1"/>
  </g>
</svg>
