<svg xmlns="http://www.w3.org/2000/svg" xmlns:xlink="http://www.w3.org/1999/xlink" preserveAspectRatio="xMidYMid" width="30" height="30" viewBox="0 0 30 30">
  <defs>
    <style>
      .cls-1 {
        fill: #666;
        fill-rule: evenodd;
      }
    </style>
  </defs>
  <g id="artboard-1">
    <path d="M10.714,19.727 L10.714,21.908 C10.714,22.211 10.610,22.469 10.401,22.681 C10.193,22.893 9.940,22.999 9.642,22.999 L6.071,22.999 C5.774,22.999 5.521,22.893 5.312,22.681 C5.104,22.469 5.000,22.211 5.000,21.908 L5.000,19.727 C5.000,19.424 5.104,19.166 5.312,18.954 C5.521,18.742 5.774,18.636 6.071,18.636 L9.642,18.636 C9.940,18.636 10.193,18.742 10.401,18.954 C10.610,19.166 10.714,19.424 10.714,19.727 L10.714,19.727 ZM10.714,13.909 L10.714,16.090 C10.714,16.393 10.610,16.651 10.401,16.863 C10.193,17.075 9.940,17.181 9.642,17.181 L6.071,17.181 C5.774,17.181 5.521,17.075 5.312,16.863 C5.104,16.651 5.000,16.393 5.000,16.090 L5.000,13.909 C5.000,13.606 5.104,13.348 5.312,13.136 C5.521,12.924 5.774,12.818 6.071,12.818 L9.642,12.818 C9.940,12.818 10.193,12.924 10.401,13.136 C10.610,13.348 10.714,13.606 10.714,13.909 L10.714,13.909 ZM17.856,19.727 L17.856,21.908 C17.856,22.211 17.752,22.469 17.544,22.681 C17.336,22.893 17.083,22.999 16.785,22.999 L13.214,22.999 C12.916,22.999 12.663,22.893 12.455,22.681 C12.247,22.469 12.142,22.211 12.142,21.908 L12.142,19.727 C12.142,19.424 12.247,19.166 12.455,18.954 C12.663,18.742 12.916,18.636 13.214,18.636 L16.785,18.636 C17.083,18.636 17.336,18.742 17.544,18.954 C17.752,19.166 17.856,19.424 17.856,19.727 L17.856,19.727 ZM10.714,8.091 L10.714,10.272 C10.714,10.576 10.610,10.833 10.401,11.045 C10.193,11.257 9.940,11.363 9.642,11.363 L6.071,11.363 C5.774,11.363 5.521,11.257 5.312,11.045 C5.104,10.833 5.000,10.576 5.000,10.272 L5.000,8.091 C5.000,7.788 5.104,7.530 5.312,7.318 C5.521,7.106 5.774,7.000 6.071,7.000 L9.642,7.000 C9.940,7.000 10.193,7.106 10.401,7.318 C10.610,7.530 10.714,7.788 10.714,8.091 L10.714,8.091 ZM17.856,13.909 L17.856,16.090 C17.856,16.393 17.752,16.651 17.544,16.863 C17.336,17.075 17.083,17.181 16.785,17.181 L13.214,17.181 C12.916,17.181 12.663,17.075 12.455,16.863 C12.247,16.651 12.142,16.393 12.142,16.090 L12.142,13.909 C12.142,13.606 12.247,13.348 12.455,13.136 C12.663,12.924 12.916,12.818 13.214,12.818 L16.785,12.818 C17.083,12.818 17.336,12.924 17.544,13.136 C17.752,13.348 17.856,13.606 17.856,13.909 L17.856,13.909 ZM24.999,19.727 L24.999,21.908 C24.999,22.211 24.895,22.469 24.686,22.681 C24.478,22.893 24.225,22.999 23.928,22.999 L20.356,22.999 C20.059,22.999 19.806,22.893 19.597,22.681 C19.389,22.469 19.285,22.211 19.285,21.908 L19.285,19.727 C19.285,19.424 19.389,19.166 19.597,18.954 C19.806,18.742 20.059,18.636 20.356,18.636 L23.928,18.636 C24.225,18.636 24.478,18.742 24.686,18.954 C24.895,19.166 24.999,19.424 24.999,19.727 L24.999,19.727 ZM17.856,8.091 L17.856,10.272 C17.856,10.576 17.752,10.833 17.544,11.045 C17.336,11.257 17.083,11.363 16.785,11.363 L13.214,11.363 C12.916,11.363 12.663,11.257 12.455,11.045 C12.247,10.833 12.142,10.576 12.142,10.272 L12.142,8.091 C12.142,7.788 12.247,7.530 12.455,7.318 C12.663,7.106 12.916,7.000 13.214,7.000 L16.785,7.000 C17.083,7.000 17.336,7.106 17.544,7.318 C17.752,7.530 17.856,7.788 17.856,8.091 L17.856,8.091 ZM24.999,13.909 L24.999,16.090 C24.999,16.393 24.895,16.651 24.686,16.863 C24.478,17.075 24.225,17.181 23.928,17.181 L20.356,17.181 C20.059,17.181 19.806,17.075 19.597,16.863 C19.389,16.651 19.285,16.393 19.285,16.090 L19.285,13.909 C19.285,13.606 19.389,13.348 19.597,13.136 C19.806,12.924 20.059,12.818 20.356,12.818 L23.928,12.818 C24.225,12.818 24.478,12.924 24.686,13.136 C24.895,13.348 24.999,13.606 24.999,13.909 L24.999,13.909 ZM24.999,8.091 L24.999,10.272 C24.999,10.576 24.895,10.833 24.686,11.045 C24.478,11.257 24.225,11.363 23.928,11.363 L20.356,11.363 C20.059,11.363 19.806,11.257 19.597,11.045 C19.389,10.833 19.285,10.576 19.285,10.272 L19.285,8.091 C19.285,7.788 19.389,7.530 19.597,7.318 C19.806,7.106 20.059,7.000 20.356,7.000 L23.928,7.000 C24.225,7.000 24.478,7.106 24.686,7.318 C24.895,7.530 24.999,7.788 24.999,8.091 L24.999,8.091 Z" class="cls-1"/>
  </g>
</svg>
