<svg xmlns="http://www.w3.org/2000/svg" xmlns:xlink="http://www.w3.org/1999/xlink" preserveAspectRatio="xMidYMid" width="30" height="30" viewBox="0 0 30 30">
  <defs>
    <style>
      .cls-1 {
        fill: #666;
        fill-rule: evenodd;
      }
    </style>
  </defs>
  <g id="artboard-1">
    <path d="M6.927,19.571 C6.509,19.571 6.195,19.466 5.777,19.360 C5.045,19.044 4.523,18.517 4.209,17.779 C4.105,17.463 4.000,17.041 4.000,16.725 C4.000,16.304 4.105,15.987 4.209,15.566 C4.314,15.249 4.523,14.933 4.836,14.617 C5.150,14.301 5.464,14.090 5.777,13.984 C6.091,13.879 6.509,13.774 6.927,13.774 L7.345,13.774 L11.318,8.925 C11.214,8.820 11.214,8.609 11.109,8.503 L11.109,7.976 C11.109,7.239 11.423,6.501 11.945,5.868 C13.095,4.709 14.873,4.709 16.022,5.868 C16.545,6.395 16.859,7.133 16.859,7.976 C16.859,8.292 16.859,8.609 16.754,8.925 C16.650,9.241 16.545,9.557 16.336,9.768 L19.786,17.568 L21.772,13.984 C21.668,13.774 21.459,13.457 21.354,13.247 C21.250,12.930 21.250,12.614 21.250,12.298 C21.250,11.560 21.563,10.822 22.086,10.190 C22.922,9.347 24.177,9.136 25.222,9.557 C25.536,9.663 25.849,9.874 26.163,10.190 C26.477,10.506 26.686,10.822 26.790,11.139 C26.895,11.560 26.999,11.876 26.999,12.298 C26.999,12.720 26.895,13.141 26.790,13.457 C26.477,14.195 25.954,14.722 25.222,15.039 C24.909,15.144 24.490,15.249 24.072,15.249 L23.549,15.249 L21.563,18.833 C21.877,19.149 22.086,19.466 22.295,19.782 C22.504,20.203 22.609,20.625 22.609,21.047 C22.609,21.785 22.295,22.628 21.772,23.155 C21.459,23.471 21.145,23.682 20.831,23.787 C19.786,24.209 18.532,23.998 17.695,23.155 C17.382,22.839 17.277,22.522 17.068,22.206 C16.754,21.468 16.754,20.625 17.068,19.887 C17.277,19.466 17.486,19.149 17.800,18.939 L14.350,10.822 L14.036,10.822 C13.827,10.822 13.618,10.822 13.409,10.717 C13.200,10.717 12.991,10.717 12.782,10.612 L9.332,15.144 C9.436,15.355 9.541,15.671 9.645,15.882 C9.750,16.198 9.750,16.409 9.750,16.725 C9.750,17.147 9.645,17.463 9.541,17.885 C9.436,18.201 9.227,18.517 8.914,18.728 L7.973,19.360 C7.659,19.571 7.241,19.676 6.927,19.571 L6.927,19.571 Z" class="cls-1"/>
  </g>
</svg>
